<svg width="219" height="57" viewBox="0 0 219 57" fill="none" xmlns="http://www.w3.org/2000/svg">
<path fill-rule="evenodd" clip-rule="evenodd" d="M147.4 15.3V26H138.6V15.3H133.5V41.3H138.6V30.6H147.4V41.3H152.5V15.3H147.4ZM120 19.2C122.4 19.2 124 20.7 124.4 23.3H129.6C128.9 17.6 125 14.7 120 14.7C117.2 14.7 114.9 15.6 113 17.5C111.9 18.6 111.2 19.9 110.9 21.4C110.6 22.9 110.5 25.4 110.5 28.3C110.5 31.1 110.6 33.7 110.9 35.2C111.2 36.7 111.9 38 113 39.1C114.9 41 117.2 42 120 42C125 42 128.9 39.1 129.6 33.4H124.5C124.1 36 122.6 37.5 120.1 37.5C118.7 37.5 117.6 37.1 116.9 36.1C115.8 35 115.6 33.4 115.6 28.3C115.6 23.3 115.8 21.7 116.9 20.5C117.6 19.6 118.7 19.2 120 19.2ZM89.9 41.3H107V36.8H95V30.6H105.3V26.1H95V19.9H107V15.4H89.9V41.3ZM67.7 19.8H74.5V41.3H79.6V19.8H86.4V15.3H67.7V19.8ZM59.6 32.6C59.6 35.6 57.8 37.4 55.1 37.4C52.4 37.4 50.6 35.6 50.6 32.6V15.3H45.5V32.8C45.5 38.3 49.7 41.9 55.1 41.9C60.4 41.9 64.7 38.3 64.7 32.8V15.3H59.7V32.6H59.6ZM31.4 15.3H26.3V41.3H43.2V36.8H31.4V15.3ZM8.3 32.4L11.6 22.9L14.8 32.4H8.3ZM9.5 15.3L0 41.3H5.3L6.9 36.7H16.1L17.6 41.3H22.9L13.4 15.3H9.5Z" fill="white"/>
<path d="M61.9 52.2L62.6 54.3H63.5L61.2 47.5001H60.1L57.8 54.3H58.7L59.4 52.2H61.9ZM59.7 51.5001L60.4 49.5001C60.5 49.3001 60.5 49.1001 60.6 48.9001C60.7 48.7001 60.7 48.5 60.8 48.3C60.8 48.5 60.9 48.7001 61 48.9001C61.1 49.1001 61.1 49.3001 61.2 49.5001L61.9 51.5001H59.7ZM64.6 54.3H68.4V53.6001H65.5V47.5001H64.6V54.3ZM69 47.5001V51.5001C69 52.0001 69.1 52.5 69.2 52.8C69.3 53.2 69.5 53.5 69.7 53.7C69.9 53.9 70.2 54.1 70.5 54.2C70.8 54.3 71.1 54.4001 71.5 54.4001C71.9 54.4001 72.2 54.3 72.5 54.2C72.8 54.1 73.1 53.9 73.3 53.7C73.5 53.5 73.7 53.2 73.8 52.8C73.9 52.4 74 52.0001 74 51.5001V47.5001H73.1V51.5001C73.1 52.0001 73 52.4 72.9 52.7C72.8 53 72.6 53.3001 72.3 53.4001C72.1 53.6001 71.8 53.6001 71.4 53.6001C71.1 53.6001 70.8 53.5001 70.6 53.4001C70.4 53.2001 70.2 53 70 52.7C69.9 52.4 69.8 52.0001 69.8 51.5001V47.5001H69ZM76.8 54.3H77.7V48.2H79.8V47.5001H74.8V48.2H76.9V54.3H76.8ZM84.1 50.4001H81.5V48.2H84.3V47.5001H80.6V54.3H84.4V53.6001H81.5V51.1001H84.1V50.4001ZM90.1 53.4001C90 53.5001 89.8 53.5001 89.7 53.5001C89.5 53.5001 89.4 53.6001 89.2 53.6001C89 53.6001 88.8 53.6001 88.7 53.6001C88.3 53.6001 87.9 53.5001 87.6 53.4001C87.3 53.3001 87 53.1 86.8 52.8C86.6 52.6 86.4 52.3001 86.3 51.9001C86.2 51.6001 86.1 51.2 86.1 50.8C86.1 50.4 86.2 50.0001 86.3 49.6001C86.4 49.3001 86.6 49 86.8 48.7C87 48.5 87.3 48.3 87.6 48.2C87.9 48.1 88.3 48.0001 88.7 48.0001C89 48.0001 89.2 48.0001 89.5 48.1001C89.7 48.2001 89.9 48.2 90.1 48.3L90.3 47.6001C90.2 47.6001 90.1 47.5001 90 47.5001C89.9 47.5001 89.7 47.4001 89.5 47.4001C89.3 47.4001 89 47.3 88.8 47.3C88.3 47.3 87.8 47.4001 87.4 47.6001C87 47.8001 86.6 48 86.3 48.3C86 48.6 85.7 49.0001 85.6 49.4001C85.4 49.8001 85.3 50.3001 85.3 50.9001C85.3 51.5001 85.4 52.0001 85.6 52.4001C85.8 52.8001 86 53.2001 86.3 53.5001C86.6 53.8001 87 54 87.4 54.2C87.8 54.3 88.3 54.4001 88.7 54.4001C89 54.4001 89.2 54.4 89.5 54.3C89.7 54.3 89.9 54.2 90.1 54.2C90.3 54.1 90.4 54.1001 90.5 54.0001L90.1 53.4001ZM91.4 47.5001V54.3H92.3V51.1001H95.6V54.3H96.5V47.5001H95.6V50.3H92.3V47.5001H91.4ZM97.5 51.3V52.0001H100V51.3H97.5ZM106.4 50.7H104.2V51.4001H105.6V53.4001C105.5 53.5001 105.4 53.5001 105.2 53.5001C105 53.5001 104.8 53.6001 104.5 53.6001C104.1 53.6001 103.7 53.5001 103.4 53.4001C103.1 53.3001 102.8 53.1001 102.6 52.9001C102.4 52.7001 102.2 52.4001 102.1 52.0001C102 51.7001 101.9 51.3 101.9 50.8C101.9 50.4 102 50 102.1 49.7C102.2 49.4 102.4 49.1 102.7 48.8C102.9 48.6 103.2 48.4 103.6 48.3C103.9 48.2 104.3 48.1001 104.7 48.1001C104.9 48.1001 105.1 48.1001 105.3 48.1001C105.5 48.1001 105.6 48.2 105.8 48.2C105.9 48.2 106.1 48.3 106.2 48.3L106.4 47.6001C106.3 47.6001 106.2 47.5001 106 47.5001C105.8 47.5001 105.6 47.4001 105.4 47.4001C105.2 47.4001 104.9 47.4001 104.7 47.4001C104.1 47.4001 103.6 47.5 103.2 47.7C102.7 47.9 102.4 48.1001 102 48.4001C101.7 48.7001 101.4 49.1001 101.3 49.5001C101.1 49.9001 101 50.4001 101 50.9001C101 51.3001 101 51.6001 101.1 51.9001C101.2 52.2001 101.3 52.5 101.4 52.8C101.5 53.1 101.7 53.3001 101.9 53.5001C102.2 53.8001 102.6 54 103 54.2C103.4 54.3 103.9 54.4001 104.4 54.4001C104.7 54.4001 105 54.4 105.3 54.3C105.6 54.3 105.8 54.2 106 54.2C106.2 54.1 106.4 54.1001 106.5 54.0001V50.7H106.4ZM107.8 54.3H108.7V51.3H109.5C109.8 51.3 110 51.4001 110.2 51.4001C110.4 51.5001 110.5 51.6 110.6 51.8C110.7 52 110.8 52.2001 110.9 52.6001C111 53.0001 111.1 53.4 111.2 53.7C111.3 54 111.3 54.2 111.4 54.3H112.3C112.2 54.2 112.2 53.9001 112.1 53.6001C112 53.3001 111.9 52.9001 111.8 52.4001C111.7 52.0001 111.6 51.8001 111.4 51.5001C111.2 51.3001 111 51.1001 110.8 51.0001C111 50.9001 111.3 50.8001 111.5 50.6001C111.7 50.4001 111.8 50.2001 112 50.0001C112.1 49.8001 112.2 49.5 112.2 49.2C112.2 48.9 112.2 48.7001 112.1 48.5001C112 48.3001 111.9 48.1001 111.7 47.9001C111.6 47.8001 111.4 47.7001 111.2 47.6001C111 47.5001 110.8 47.5001 110.6 47.4001C110.4 47.4001 110.1 47.3 109.8 47.3C109.6 47.3 109.4 47.3 109.2 47.3C109 47.3 108.8 47.3 108.6 47.3C108.4 47.3 108.2 47.3001 108.1 47.4001V54.3H107.8ZM108.6 48.2C108.7 48.2 108.8 48.2001 108.9 48.1001C109 48.1001 109.2 48.1001 109.4 48.1001C109.7 48.1001 110 48.1 110.2 48.2C110.4 48.3 110.6 48.4001 110.7 48.6001C110.8 48.8001 110.9 49 110.9 49.3C110.9 49.6 110.8 49.8001 110.7 50.0001C110.6 50.2001 110.4 50.3001 110.2 50.5001C110 50.6001 109.7 50.7 109.4 50.7H108.5V48.2H108.6ZM116 47.4001C115.5 47.4001 115.1 47.5 114.7 47.7C114.3 47.9 114 48.1001 113.7 48.4001C113.4 48.7001 113.2 49.1001 113 49.5001C112.8 49.9001 112.8 50.4001 112.8 51.0001C112.8 51.5001 112.9 52.0001 113 52.4001C113.1 52.8001 113.4 53.2001 113.6 53.5001C113.9 53.8001 114.2 54 114.6 54.2C115 54.4 115.4 54.4001 115.8 54.5001C116.1 54.5001 116.5 54.5001 116.8 54.4001C117.1 54.3001 117.4 54.2001 117.7 54.0001C118 53.8001 118.2 53.6 118.4 53.3C118.6 53 118.7 52.7 118.9 52.3C119 51.9 119.1 51.5001 119.1 51.0001C119.1 50.5001 119 50.0001 118.9 49.6001C118.8 49.2001 118.6 48.8001 118.3 48.5001C118 48.2001 117.7 48 117.3 47.8C116.9 47.5 116.4 47.4001 116 47.4001ZM115.9 48.1001C116.2 48.1001 116.5 48.2 116.7 48.3C116.9 48.4 117.1 48.5 117.3 48.7C117.5 48.9 117.6 49.1 117.7 49.3C117.8 49.5 117.9 49.8001 118 50.1001C118.1 50.4001 118.1 50.6001 118.1 50.9001C118.1 51.3001 118.1 51.7001 118 52.0001C117.9 52.3001 117.8 52.6001 117.6 52.9001C117.4 53.2001 117.2 53.4001 116.9 53.5001C116.6 53.6001 116.3 53.7 116 53.7C115.7 53.7 115.5 53.7001 115.2 53.6001C115 53.5001 114.8 53.4 114.6 53.2C114.4 53 114.3 52.8001 114.2 52.6001C114.1 52.4001 114 52.1 113.9 51.8C113.8 51.5 113.8 51.2001 113.8 51.0001C113.8 50.7001 113.8 50.4001 113.9 50.1001C114 49.8001 114 49.6 114.2 49.3C114.3 49.1 114.5 48.9 114.6 48.7C114.8 48.5 115 48.4 115.2 48.3C115.4 48.2 115.6 48.1001 115.9 48.1001ZM120.2 47.5001V51.5001C120.2 52.0001 120.3 52.5 120.4 52.8C120.5 53.2 120.7 53.5 120.9 53.7C121.1 53.9 121.4 54.1 121.7 54.2C122 54.3 122.3 54.4001 122.7 54.4001C123.1 54.4001 123.4 54.3 123.7 54.2C124 54.1 124.3 53.9 124.5 53.7C124.7 53.5 124.9 53.2 125 52.8C125.1 52.4 125.2 52.0001 125.2 51.5001V47.5001H124.3V51.5001C124.3 52.0001 124.2 52.4 124.1 52.7C124 53 123.8 53.3001 123.5 53.4001C123.3 53.6001 123 53.6001 122.6 53.6001C122.3 53.6001 122 53.5001 121.8 53.4001C121.6 53.2001 121.4 53 121.2 52.7C121.1 52.4 121 52.0001 121 51.5001V47.5001H120.2ZM126.7 54.3H127.6V51.6001C127.7 51.6001 127.8 51.6001 127.9 51.6001C128 51.6001 128.1 51.6001 128.3 51.6001C128.6 51.6001 128.9 51.6001 129.1 51.5001C129.4 51.4001 129.6 51.4 129.8 51.3C130 51.2 130.2 51.1001 130.4 50.9001C130.6 50.7001 130.7 50.5 130.8 50.3C130.9 50.1 130.9 49.8001 130.9 49.5001C130.9 49.2001 130.8 48.9 130.7 48.7C130.6 48.5 130.5 48.3001 130.3 48.1001C130.1 47.9001 129.8 47.8 129.5 47.7C129.2 47.6 128.8 47.6001 128.4 47.6001C128 47.6001 127.7 47.6001 127.5 47.6001C127.2 47.6001 127 47.7 126.8 47.7V54.3H126.7ZM127.6 48.2C127.7 48.2 127.8 48.2 127.9 48.2C128 48.2 128.2 48.2 128.4 48.2C128.7 48.2 129 48.2 129.2 48.3C129.4 48.4 129.6 48.5 129.8 48.7C129.9 48.9 130 49.1001 130 49.4001C130 49.7001 129.9 50 129.8 50.2C129.7 50.4 129.5 50.6 129.2 50.7C128.9 50.8 128.6 50.9001 128.3 50.9001C128.2 50.9001 128 50.9001 127.9 50.9001C127.8 50.9001 127.7 50.9 127.6 50.8V48.2ZM131.4 54.4001C131.5 54.4001 131.6 54.4 131.7 54.3C131.8 54.2 131.9 54.2001 131.9 54.1001C131.9 54.0001 132 53.9 132 53.8C132 53.7 132 53.6001 131.9 53.5001C131.8 53.4001 131.8 53.3 131.7 53.3C131.6 53.2 131.5 53.2 131.4 53.2C131.3 53.2 131.2 53.2 131.1 53.3C131 53.4 130.9 53.4001 130.9 53.5001C130.8 53.6001 130.8 53.7 130.8 53.8C130.8 53.9 130.8 54.0001 130.9 54.1001C130.9 54.2001 131 54.3 131.1 54.3C131.2 54.4 131.3 54.4001 131.4 54.4001ZM138.1 53.4001C138 53.5001 137.8 53.5001 137.7 53.5001C137.5 53.5001 137.4 53.6001 137.2 53.6001C137 53.6001 136.8 53.6001 136.7 53.6001C136.3 53.6001 135.9 53.5001 135.6 53.4001C135.3 53.3001 135 53.1 134.8 52.8C134.6 52.6 134.4 52.3001 134.3 51.9001C134.2 51.6001 134.1 51.2 134.1 50.8C134.1 50.4 134.2 50.0001 134.3 49.6001C134.4 49.3001 134.6 49 134.8 48.7C135 48.5 135.3 48.3 135.6 48.2C135.9 48.1 136.3 48.0001 136.7 48.0001C137 48.0001 137.2 48.0001 137.5 48.1001C137.7 48.2001 137.9 48.2 138.1 48.3L138.3 47.6001C138.2 47.6001 138.1 47.5001 138 47.5001C137.9 47.5001 137.7 47.4001 137.5 47.4001C137.3 47.4001 137 47.3 136.8 47.3C136.3 47.3 135.8 47.4001 135.4 47.6001C135 47.8001 134.6 48 134.3 48.3C134 48.6 133.7 49.0001 133.6 49.4001C133.4 49.8001 133.3 50.3001 133.3 50.9001C133.3 51.5001 133.4 52.0001 133.6 52.4001C133.8 52.8001 134 53.2001 134.3 53.5001C134.6 53.8001 135 54 135.4 54.2C135.8 54.3 136.3 54.4001 136.7 54.4001C137 54.4001 137.2 54.4 137.5 54.3C137.7 54.3 137.9 54.2 138.1 54.2C138.3 54.1 138.4 54.1001 138.5 54.0001L138.1 53.4001ZM141.9 47.4001C141.4 47.4001 141 47.5 140.6 47.7C140.2 47.9 139.9 48.1001 139.6 48.4001C139.3 48.7001 139.1 49.1001 138.9 49.5001C138.7 49.9001 138.7 50.4001 138.7 51.0001C138.7 51.5001 138.8 52.0001 138.9 52.4001C139 52.8001 139.3 53.2001 139.5 53.5001C139.8 53.8001 140.1 54 140.5 54.2C140.9 54.4 141.3 54.4001 141.7 54.5001C142 54.5001 142.4 54.5001 142.7 54.4001C143 54.3001 143.3 54.2001 143.6 54.0001C143.9 53.8001 144.1 53.6 144.3 53.3C144.5 53 144.6 52.7 144.8 52.3C144.9 51.9 145 51.5001 145 51.0001C145 50.5001 144.9 50.0001 144.8 49.6001C144.7 49.2001 144.5 48.8001 144.2 48.5001C143.9 48.2001 143.6 48 143.2 47.8C142.8 47.5 142.4 47.4001 141.9 47.4001ZM141.9 48.1001C142.2 48.1001 142.5 48.2 142.7 48.3C142.9 48.4 143.1 48.5 143.3 48.7C143.5 48.9 143.6 49.1 143.7 49.3C143.8 49.5 143.9 49.8001 144 50.1001C144.1 50.4001 144.1 50.6001 144.1 50.9001C144.1 51.3001 144.1 51.7001 144 52.0001C143.9 52.3001 143.8 52.6001 143.6 52.9001C143.4 53.2001 143.2 53.4001 142.9 53.5001C142.6 53.6001 142.3 53.7 142 53.7C141.7 53.7 141.5 53.7001 141.2 53.6001C141 53.5001 140.8 53.4 140.6 53.2C140.4 53 140.3 52.8001 140.2 52.6001C140.1 52.4001 140 52.1 139.9 51.8C139.8 51.5 139.8 51.2001 139.8 51.0001C139.8 50.7001 139.8 50.4001 139.9 50.1001C140 49.8001 140 49.6 140.2 49.3C140.3 49.1 140.5 48.9 140.6 48.7C140.8 48.5 141 48.4 141.2 48.3C141.3 48.2 141.6 48.1001 141.9 48.1001ZM152 54.3H152.9L152.5 47.5001H151.4L150.2 50.8C150 51.2 149.9 51.6001 149.8 52.0001C149.7 52.4001 149.6 52.7001 149.5 53.1001C149.4 52.7001 149.3 52.4001 149.2 52.0001C149.1 51.6001 149 51.2 148.8 50.8L147.6 47.5001H146.5L146 54.3H146.8L147 51.4001C147 51.1001 147 50.7001 147.1 50.4001C147.1 50.0001 147.1 49.7001 147.1 49.4001C147.1 49.1001 147.1 48.8001 147.1 48.5001C147.2 48.9001 147.3 49.3 147.4 49.8C147.5 50.2 147.7 50.7 147.8 51.2L148.9 54.4001H149.6L150.8 51.1001C151 50.6001 151.1 50.2 151.3 49.8C151.4 49.4 151.6 49.0001 151.7 48.6001C151.7 48.8001 151.7 49 151.7 49.3C151.7 49.5 151.7 49.8001 151.7 50.0001C151.7 50.3001 151.7 50.5 151.7 50.8C151.7 51.1 151.7 51.3001 151.7 51.5001L152 54.3Z" fill="white"/>
<path fill-rule="evenodd" clip-rule="evenodd" d="M218.7 56.7H162V0H218.7V56.7Z" fill="white"/>
<path fill-rule="evenodd" clip-rule="evenodd" d="M193.8 30.6H192.6V54.4H197.2C198.2 53.2 199 51.9 199.6 50.4C202.5 43.1 200 35 193.8 30.6ZM200.6 54.4H216.4V44.5C209.5 44.2 203.2 48.2 200.6 54.4ZM198.6 30.6C201.3 37.8 208.7 42.3 216.4 41.2V30.6H198.6Z" fill="#D60B52"/>
<path fill-rule="evenodd" clip-rule="evenodd" d="M205 48.4C207.4 49.8 209.5 51.9 210.9 54.4H216.4V44.5C212.1 44.3 208.1 45.8 205 48.4ZM192.6 43.8V54.4H197.2C198.2 53.2 199 51.9 199.6 50.4C200.9 47.3 201.2 44 200.5 40.9C198.1 42.6 195.4 43.6 192.6 43.8ZM210.4 30.6H198.6C200.2 35 203.7 38.4 207.8 40.1C207.7 36.7 208.6 33.4 210.4 30.6Z" fill="#A61F5E"/>
<path fill-rule="evenodd" clip-rule="evenodd" d="M181.9 42.5C185 39.3 187.2 35.2 188.1 30.6H164.3V54.4H188.1C187.1 49.9 184.9 45.8 181.9 42.5Z" fill="#64B8E1"/>
<path fill-rule="evenodd" clip-rule="evenodd" d="M181.3 30.6H164.3V34.9C168.5 34.9 172.5 36 175.9 37.9C178 35.8 179.9 33.3 181.3 30.6ZM175.9 47.1C172.4 49 168.5 50.1 164.3 50.1V54.4H181.3C179.9 51.7 178 49.2 175.9 47.1Z" fill="#BEE2E9"/>
<path fill-rule="evenodd" clip-rule="evenodd" d="M164.3 35V40.1C166.3 40.7 168.2 41.6 169.9 42.6C172.1 41.3 174.1 39.8 175.9 38C172.4 36 168.5 35 164.3 35ZM164.3 45V50.1C168.5 50.1 172.5 49 175.9 47.1C174.1 45.3 172.1 43.8 169.9 42.5C168.1 43.5 166.2 44.4 164.3 45Z" fill="#0085BA"/>
<path fill-rule="evenodd" clip-rule="evenodd" d="M192.6 26.1001H216.4V15.8H192.6V26.1001ZM192.6 2.30005V13.6001H216.4V2.30005H192.6Z" fill="#BCCF00"/>
<path fill-rule="evenodd" clip-rule="evenodd" d="M192.6 22.8H216.4V17.9001H192.6V22.8ZM192.6 2.30005V10.7H216.4V2.30005H192.6Z" fill="#3AAA35"/>
<path fill-rule="evenodd" clip-rule="evenodd" d="M176.6 18.9001C175 17.9001 173.7 16.6001 172.7 15.1001C172.3 13.4001 172.5 11.6001 173.5 10.0001C175.4 6.90006 179.5 5.90005 182.7 7.80005C185.8 9.70005 186.8 13.8001 184.9 17.0001C184.6 17.5001 184.2 17.9 183.8 18.3C182.7 19 181.5 19.5001 180.2 19.6001C183.2 19.9001 186.2 18.6001 188.1 16.1001V2.30005H164.3V26.1001H188.1V19.8C184.4 21.3 180.2 21.1001 176.6 18.9001Z" fill="#FBBA00"/>
<path fill-rule="evenodd" clip-rule="evenodd" d="M171.6 13.1C170.9 10.3 171.2 7.10002 172.9 4.40002C173.4 3.60002 174 2.80001 174.7 2.20001H172C170.2 5.70001 170.1 9.70004 171.6 13.1ZM184.5 26.1H188.1V23.7C187 24.6 185.8 25.4 184.5 26.1ZM165.7 2.30002H164.3V4.30002C164.4 4.20002 164.4 4.10003 164.5 4.00003C164.8 3.40003 165.2 2.80002 165.7 2.30002ZM164.3 20V26.1H170.9C170.5 25.9 170 25.6 169.6 25.4C167.3 24 165.5 22.1 164.3 20Z" fill="#F39200"/>
<path fill-rule="evenodd" clip-rule="evenodd" d="M176.6 18.9001C170.9 15.4001 169 8.10005 172 2.30005H168.4C164.5 8.60005 166.5 16.8 172.7 20.7C177.6 23.7 183.8 23.2 188.1 19.8C184.4 21.3 180.2 21.1001 176.6 18.9001ZM185.6 3.00006C185.1 2.70006 184.6 2.50005 184.2 2.30005H177.6C175.8 3.00005 174.3 4.20005 173.2 5.90005C172.4 7.20006 172 8.60007 171.9 10.1001C172.1 9.30007 172.4 8.50005 172.8 7.80005C175 4.20005 179.8 3.00005 183.5 5.30005C187.1 7.50005 188.3 12.3001 186 16.0001C184.7 18.2001 182.4 19.4001 180.1 19.6001C183.1 19.9001 186.1 18.6001 188 16.1001V5.20004C187.4 4.30004 186.6 3.60006 185.6 3.00006Z" fill="#EF7D00"/>
</svg>
